<svg
  width="851"
  height="150"
  viewBox="0 0 851 150"
  fill="none"
  xmlns="http://www.w3.org/2000/svg"
>
  <g clip-path="url(#clip0_4648_1776)">
    <path
      d="M147.635 0H0V34.641L87.5311 58.1292L147.635 23.3193V0Z"
      fill="#0E39B4"
    />
    <path
      d="M95.8096 72.3267L147.632 42.4276V147.327H75.6562L95.8096 72.3267Z"
      fill="#0E39B4"
    />
    <path
      d="M0 127.507V147.327H58.7329L75.6587 83.853L0 127.507Z"
      fill="#818181"
    />
    <path
      d="M67.6241 69.6986L0 51.7817V108.575L67.6241 69.6986Z"
      fill="#818181"
    />
    <path
      d="M245.926 62.1381H277.864C283.488 62.1381 288.108 60.8018 291.723 58.1292C295.339 55.4566 297.146 51.1136 297.146 45.1002C297.146 41.7595 296.544 39.02 295.339 36.882C294.134 34.7439 292.527 33.0735 290.518 31.8708C288.509 30.6682 286.166 29.8664 283.488 29.4655C280.943 28.931 278.265 28.6637 275.453 28.6637H245.926V62.1381ZM214.391 4.20935H281.881C288.71 4.20935 294.937 4.81069 300.561 6.01336C306.185 7.21603 311.006 9.22049 315.023 12.0267C319.041 14.6993 322.121 18.3073 324.263 22.8508C326.54 27.3942 327.678 33.0067 327.678 39.6882C327.678 46.9042 326.004 52.9176 322.656 57.7283C319.442 62.539 314.622 66.4811 308.194 69.5546C317.032 72.0935 323.594 76.5702 327.879 82.9844C332.298 89.265 334.507 96.882 334.507 105.835C334.507 113.051 333.101 119.332 330.289 124.677C327.477 129.889 323.66 134.165 318.84 137.506C314.153 140.846 308.73 143.318 302.57 144.922C296.544 146.526 290.317 147.327 283.889 147.327H214.391V4.20935ZM245.926 122.873H279.671C282.751 122.873 285.697 122.606 288.509 122.071C291.321 121.403 293.799 120.401 295.941 119.065C298.084 117.595 299.758 115.657 300.963 113.252C302.302 110.846 302.972 107.773 302.972 104.031C302.972 96.6815 300.896 91.4699 296.745 88.3964C292.594 85.1893 287.103 83.5857 280.274 83.5857H245.926V122.873ZM353.609 4.20935H382.132V147.327H353.609V4.20935ZM502.011 147.327H474.894V132.895H474.292C470.676 138.909 465.989 143.252 460.231 145.924C454.473 148.597 448.581 149.933 442.555 149.933C434.922 149.933 428.629 148.931 423.674 146.926C418.853 144.922 415.037 142.116 412.225 138.508C409.413 134.766 407.404 130.29 406.199 125.078C405.127 119.733 404.592 113.853 404.592 107.439V43.6971H433.114V102.227C433.114 110.78 434.454 117.194 437.132 121.47C439.81 125.612 444.564 127.684 451.393 127.684C459.16 127.684 464.784 125.412 468.266 120.869C471.747 116.192 473.488 108.575 473.488 98.0178V43.6971H502.011V147.327ZM523.657 43.6971H550.774V58.1292H551.376C554.992 52.1158 559.679 47.7728 565.437 45.1002C571.195 42.294 577.087 40.8909 583.113 40.8909C590.746 40.8909 596.972 41.9599 601.793 44.098C606.748 46.1025 610.631 48.9755 613.443 52.7171C616.255 56.3252 618.197 60.8018 619.268 66.147C620.473 71.3586 621.076 77.1715 621.076 83.5857V147.327H592.553V88.7973C592.553 80.245 591.214 73.8976 588.536 69.755C585.858 65.4788 581.104 63.3408 574.275 63.3408C566.508 63.3408 560.884 65.6793 557.402 70.3563C553.921 74.8998 552.18 82.4499 552.18 93.0067V147.327H523.657V43.6971ZM641.521 75.5679C641.922 68.8864 643.596 63.3408 646.542 58.931C649.488 54.5212 653.238 50.98 657.791 48.3074C662.344 45.6347 667.432 43.7639 673.056 42.6949C678.814 41.4922 684.572 40.8909 690.331 40.8909C695.553 40.8909 700.842 41.2918 706.199 42.0935C711.555 42.7617 716.443 44.1648 720.862 46.3029C725.281 48.441 728.896 51.4477 731.708 55.3229C734.521 59.0646 735.927 64.0757 735.927 70.3563V124.276C735.927 128.953 736.194 133.43 736.73 137.706C737.266 141.982 738.203 145.189 739.542 147.327H710.618C710.082 145.724 709.613 144.12 709.212 142.517C708.944 140.78 708.743 139.042 708.609 137.305C704.056 141.982 698.7 145.256 692.54 147.127C686.38 148.998 680.086 149.933 673.659 149.933C668.704 149.933 664.084 149.332 659.799 148.129C655.514 146.927 651.765 145.056 648.551 142.517C645.337 139.978 642.793 136.771 640.918 132.895C639.177 129.02 638.307 124.41 638.307 119.065C638.307 113.185 639.311 108.374 641.32 104.633C643.462 100.757 646.141 97.6837 649.354 95.412C652.702 93.1403 656.452 91.4699 660.603 90.4009C664.888 89.1982 669.173 88.2628 673.458 87.5947C677.743 86.9265 681.961 86.392 686.112 85.9911C690.264 85.5902 693.946 84.9889 697.16 84.1871C700.374 83.3853 702.918 82.2494 704.793 80.7795C706.667 79.1759 707.538 76.9042 707.404 73.9644C707.404 70.8909 706.868 68.4855 705.797 66.7483C704.86 64.8775 703.521 63.4744 701.78 62.539C700.173 61.4699 698.231 60.8018 695.955 60.5345C693.812 60.1336 691.469 59.9332 688.924 59.9332C683.3 59.9332 678.881 61.1359 675.667 63.5412C672.454 65.9465 670.579 69.9555 670.043 75.5679H641.521ZM707.404 96.6147C706.199 97.6837 704.659 98.5523 702.784 99.2205C701.043 99.755 699.102 100.223 696.959 100.624C694.95 101.025 692.808 101.359 690.531 101.626C688.255 101.893 685.978 102.227 683.702 102.628C681.559 103.029 679.417 103.563 677.274 104.232C675.266 104.9 673.458 105.835 671.851 107.038C670.378 108.107 669.173 109.51 668.236 111.247C667.298 112.984 666.829 115.189 666.829 117.862C666.829 120.401 667.298 122.539 668.236 124.276C669.173 126.013 670.445 127.416 672.052 128.486C673.659 129.421 675.534 130.089 677.676 130.49C679.819 130.891 682.028 131.091 684.305 131.091C689.929 131.091 694.281 130.156 697.361 128.285C700.441 126.414 702.717 124.209 704.19 121.67C705.663 118.998 706.534 116.325 706.801 113.653C707.203 110.98 707.404 108.842 707.404 107.238V96.6147ZM815.512 147.327H783.776L748.223 43.6971H778.151L800.046 114.454H800.447L822.341 43.6971H850.663L815.512 147.327Z"
      fill="#0E39B4"
    />
  </g>
  <defs>
    <clipPath id="clip0_4648_1776">
      <rect width="850.658" height="150" fill="white" />
    </clipPath>
  </defs>
</svg>