<svg width="85" height="85" viewBox="0 0 85 85" fill="none" xmlns="http://www.w3.org/2000/svg">
  <path
    d="M27.8893 23.9063C26.0506 23.9063 24.2531 23.361 22.7242 22.3394C21.1954 21.3179 20.0038 19.8659 19.3001 18.1671C18.5965 16.4684 18.4123 14.5991 18.7711 12.7956C19.1298 10.9922 20.0152 9.33569 21.3154 8.0355C22.6156 6.7353 24.2722 5.84986 26.0756 5.49114C27.879 5.13242 29.7483 5.31653 31.4471 6.02019C33.1459 6.72384 34.5978 7.91545 35.6194 9.44431C36.6409 10.9732 37.1862 12.7706 37.1862 14.6094C37.1834 17.0742 36.203 19.4373 34.4601 21.1802C32.7172 22.923 30.3541 23.9034 27.8893 23.9063ZM27.8893 10.625C27.1013 10.625 26.3309 10.8587 25.6757 11.2965C25.0205 11.7343 24.5098 12.3566 24.2082 13.0846C23.9067 13.8127 23.8278 14.6138 23.9815 15.3867C24.1352 16.1596 24.5147 16.8695 25.0719 17.4268C25.6292 17.984 26.3391 18.3635 27.112 18.5172C27.8849 18.6709 28.686 18.592 29.4141 18.2905C30.1421 17.9889 30.7644 17.4782 31.2022 16.823C31.64 16.1678 31.8737 15.3974 31.8737 14.6094C31.8737 13.5527 31.4539 12.5392 30.7067 11.792C29.9595 11.0448 28.946 10.625 27.8893 10.625ZM59.6952 83.1752L51.3706 63.75H32.5085C30.1674 63.7466 27.8926 62.972 26.0359 61.546C24.1792 60.12 22.844 58.122 22.2368 55.8609L17.8965 39.5861C17.1888 36.932 17.5645 34.1054 18.9409 31.7283C20.3173 29.3511 22.5816 27.6181 25.2357 26.9105C27.8898 26.2028 30.7164 26.5785 33.0935 27.9549C35.4707 29.3312 37.2037 31.5956 37.9113 34.2497L40.1081 42.5H55.7799V47.8125H36.0281L32.7795 35.6203C32.4018 34.3652 31.5507 33.3062 30.4062 32.6674C29.2617 32.0286 27.9135 31.8602 26.647 32.1977C25.3805 32.5352 24.295 33.3522 23.6201 34.4758C22.9452 35.5994 22.734 36.9415 23.031 38.2181L27.3687 54.4903C27.672 55.622 28.3399 56.6221 29.2691 57.3357C30.1983 58.0493 31.3369 58.4365 32.5085 58.4375H54.8742L64.5801 81.082L59.6952 83.1752ZM79.6862 15.9375H69.0612V5.3125H63.7487V15.9375H53.1237V21.25H63.7487V31.875H69.0612V21.25H79.6862V15.9375Z"
    fill="#1A56DB" />
  <path
    d="M47.8108 74.375H20.632C19.4611 74.3753 18.3229 73.9887 17.3944 73.2753C16.4659 72.562 15.799 71.5619 15.4975 70.4305L5.39844 32.5603L10.533 31.1897L20.632 69.0625H47.8108V74.375Z"
    fill="#1A56DB" />
</svg>
  